<svg xmlns="http://www.w3.org/2000/svg" viewBox="0 0 260 52" fill="none" role="img" aria-label="Auroranexis">
  <defs>
    <linearGradient id="aurora" x1="24" y1="4" x2="24" y2="44" gradientUnits="userSpaceOnUse">
      <stop stop-color="#22D3EE"/>
      <stop offset="0.45" stop-color="#2563EB"/>
      <stop offset="1" stop-color="#9333EA"/>
    </linearGradient>
    <linearGradient id="star" x1="24" y1="18" x2="24" y2="34" gradientUnits="userSpaceOnUse">
      <stop stop-color="#FFFFFF"/>
      <stop offset="1" stop-color="#67E8F9"/>
    </linearGradient>
  </defs>
  <g transform="translate(0 2) scale(0.95)">
    <path
      d="M24 4 L8 44 H15 L19.5 31 L24 42 L28.5 31 L33 44 H40 L24 4Z"
      fill="url(#aurora)"
    />
    <path
      d="M24 19 L26.4 25.2 H32.8 L27.6 28.8 L29.6 35.2 L24 31.6 L18.4 35.2 L20.4 28.8 L15.2 25.2 H21.6 L24 19Z"
      fill="url(#star)"
    />
    <path
      d="M13 40.5 C17.5 37.5 20.5 37.5 24 38.5"
      stroke="#60A5FA"
      stroke-width="1.4"
      stroke-linecap="round"
      fill="none"
    />
    <path
      d="M35 40.5 C30.5 37.5 27.5 37.5 24 38.5"
      stroke="#A78BFA"
      stroke-width="1.4"
      stroke-linecap="round"
      fill="none"
    />
  </g>
  <text
    x="58"
    y="34"
    fill="#0A1628"
    font-family="Inter, Segoe UI, system-ui, sans-serif"
    font-size="22"
    font-weight="600"
    letter-spacing="-0.02em"
  >
    Auroranexis
  </text>
</svg>
