<svg xmlns="http://www.w3.org/2000/svg" viewBox="0 0 220 32" fill="none" role="img" aria-label="Auroranexis">
  <path d="M8 22V10h3.2l4.8 7.5V10H19v12h-3.2l-4.8-7.5V22H8z" fill="#2563EB"/>
  <path d="M34 22.2V10.8h2.6l5.8 7.4v-7.4H45v11.4h-2.5l-5.9-7.5v7.5H34zm14.2 0V10.8h2.4v11.4h-2.4zm8.1 0V10.8h2.3l4.9 8.5 4.9-8.5h2.3v11.4h-2.2v-7.8l-4.4 7.8h-1.4l-4.4-7.8v7.8h-2.2zm24.8.3c-3.1 0-5.4-2.2-5.4-5.8V10.8h2.4v5.8c0 2.1 1.2 3.4 3 3.4s3-1.3 3-3.4v-5.8h2.4v5.7c0 3.6-2.3 5.9-5.4 5.9zm12.1 0c-3.2 0-5.5-2.3-5.5-5.7s2.3-5.7 5.5-5.7 5.5 2.3 5.5 5.7-2.3 5.7-5.5 5.7zm0-2.1c1.9 0 3.1-1.4 3.1-3.6s-1.2-3.6-3.1-3.6-3.1 1.4-3.1 3.6 1.2 3.6 3.1 3.6zm11.2 1.8h-2.4l3.6-11.4h2.7l3.6 11.4h-2.4l-.7-2.3h-3.7l-.7 2.3zm2.3-4.2 1.2-3.9 1.2 3.9h-2.4z" fill="#0A1628"/>
</svg>
